<svg width="306" height="191" viewBox="0 0 306 191" fill="none" xmlns="http://www.w3.org/2000/svg">
<circle cx="96" cy="95" r="85" fill="white"/>
<rect width="273" height="191" rx="25" fill="white"/>
<circle cx="96" cy="95" r="85" fill="url(#paint0_linear_296_40)" fill-opacity="0.24" stroke="white" stroke-width="20"/>
<path d="M54.4536 117.673L54.4279 149.026C54.4254 152.154 56.7022 154.814 59.7928 155.294L115.428 163.926C121.481 164.865 125.233 157.529 120.924 153.181L65.3275 97.0812C61.34 93.0576 54.4715 95.8891 54.4669 101.558L54.4536 117.673Z" fill="white" stroke="#4353FF" stroke-width="4.23204"/>
<path d="M99.9626 161.646L136.733 156.051C139.701 155.599 141.842 153.148 141.863 150.176L142.208 101.83C142.249 96.0619 135.009 92.9521 131.06 97.0411L76.3826 153.655C72.2282 157.956 76.3384 165.241 82.3995 164.318L99.9626 161.646Z" fill="white" stroke="#4353FF" stroke-width="4.23204"/>
<mask id="path-6-outside-1_296_40" maskUnits="userSpaceOnUse" x="166" y="93" width="102" height="51" fill="black">
<rect fill="white" x="166" y="93" width="102" height="51"/>
<path d="M198.456 140.4C197.773 141.04 196.941 141.573 195.96 142C195.021 142.427 193.869 142.64 192.504 142.64C190.754 142.64 189.282 142.256 188.088 141.488C186.936 140.72 186.168 139.632 185.784 138.224C184.376 139.76 182.818 140.891 181.112 141.616C179.448 142.299 177.741 142.64 175.992 142.64C173.048 142.64 170.85 141.829 169.4 140.208C167.949 138.544 167.224 136.475 167.224 134C167.224 131.483 168.141 129.456 169.976 127.92C171.81 126.341 175.053 125.552 179.704 125.552H185.528V120.368C185.528 116.827 185.058 114.416 184.12 113.136C183.224 111.813 181.965 111.152 180.344 111.152C179.277 111.152 178.296 111.429 177.4 111.984C176.504 112.496 175.864 113.477 175.48 114.928C175.138 116.336 175.202 118.384 175.672 121.072L168.632 120.048C168.29 118.085 168.504 116.272 169.272 114.608C170.082 112.901 171.426 111.536 173.304 110.512C175.181 109.445 177.57 108.912 180.472 108.912C183.757 108.912 186.296 109.445 188.088 110.512C189.88 111.579 191.117 112.987 191.8 114.736C192.525 116.485 192.888 118.363 192.888 120.368V135.152C192.888 137.328 193.08 138.693 193.464 139.248C193.848 139.803 194.274 140.08 194.744 140.08C195.512 140.08 196.365 139.632 197.304 138.736L198.456 140.4ZM178.808 139.248C179.917 139.248 181.005 138.971 182.072 138.416C183.181 137.819 184.333 136.731 185.528 135.152V127.792H180.728C178.637 127.792 177.122 128.283 176.184 129.264C175.245 130.245 174.776 131.781 174.776 133.872C174.776 135.579 175.117 136.901 175.8 137.84C176.482 138.779 177.485 139.248 178.808 139.248ZM199.805 96.432V94.64H212.093V125.68L223.357 114.928C224.851 113.52 225.64 112.667 225.725 112.368C225.853 112.069 225.555 111.877 224.829 111.792L221.309 111.344V109.552H234.429V111.344L230.909 111.792C230.525 111.835 230.205 111.92 229.949 112.048C229.693 112.176 229.331 112.453 228.861 112.88C228.392 113.264 227.645 113.947 226.621 114.928L220.477 120.816L229.565 136.624C230.163 137.605 230.611 138.309 230.909 138.736C231.208 139.12 231.485 139.376 231.741 139.504C232.04 139.589 232.403 139.675 232.829 139.76L236.349 140.208V142H224.125L215.229 125.808L212.093 128.816V136.624C212.093 138.075 212.157 138.949 212.285 139.248C212.413 139.504 212.819 139.675 213.501 139.76L217.021 140.208V142H199.805V140.208L203.325 139.76C204.008 139.675 204.413 139.504 204.541 139.248C204.669 138.949 204.733 138.075 204.733 136.624V100.016C204.733 98.5653 204.669 97.712 204.541 97.456C204.413 97.1573 204.008 96.9653 203.325 96.88L199.805 96.432ZM266.117 134.384C265.349 137.371 263.92 139.504 261.829 140.784C259.739 142.021 257.307 142.64 254.533 142.64C249.413 142.64 245.573 141.168 243.013 138.224C240.453 135.237 239.173 131.291 239.173 126.384V125.104C239.173 120.197 240.368 116.272 242.757 113.328C245.189 110.384 248.688 108.912 253.253 108.912C255.813 108.912 258.075 109.424 260.037 110.448C262.043 111.429 263.6 112.859 264.709 114.736C265.861 116.613 266.437 118.896 266.437 121.584C266.437 122.224 266.395 122.907 266.309 123.632C266.267 124.357 266.16 125.083 265.989 125.808H247.045V127.664C247.045 132.187 247.685 135.451 248.965 137.456C250.245 139.419 252.315 140.4 255.173 140.4C257.008 140.4 258.565 139.867 259.845 138.8C261.125 137.691 261.851 135.835 262.021 133.232L266.117 134.384ZM253.253 111.152C251.163 111.152 249.605 112.112 248.581 114.032C247.557 115.952 247.045 119.131 247.045 123.568H258.629C258.8 122.715 258.907 121.925 258.949 121.2C259.035 120.432 259.077 119.728 259.077 119.088C259.077 116.357 258.544 114.352 257.477 113.072C256.411 111.792 255.003 111.152 253.253 111.152Z"/>
</mask>
<path d="M198.456 140.4C197.773 141.04 196.941 141.573 195.96 142C195.021 142.427 193.869 142.64 192.504 142.64C190.754 142.64 189.282 142.256 188.088 141.488C186.936 140.72 186.168 139.632 185.784 138.224C184.376 139.76 182.818 140.891 181.112 141.616C179.448 142.299 177.741 142.64 175.992 142.64C173.048 142.64 170.85 141.829 169.4 140.208C167.949 138.544 167.224 136.475 167.224 134C167.224 131.483 168.141 129.456 169.976 127.92C171.81 126.341 175.053 125.552 179.704 125.552H185.528V120.368C185.528 116.827 185.058 114.416 184.12 113.136C183.224 111.813 181.965 111.152 180.344 111.152C179.277 111.152 178.296 111.429 177.4 111.984C176.504 112.496 175.864 113.477 175.48 114.928C175.138 116.336 175.202 118.384 175.672 121.072L168.632 120.048C168.29 118.085 168.504 116.272 169.272 114.608C170.082 112.901 171.426 111.536 173.304 110.512C175.181 109.445 177.57 108.912 180.472 108.912C183.757 108.912 186.296 109.445 188.088 110.512C189.88 111.579 191.117 112.987 191.8 114.736C192.525 116.485 192.888 118.363 192.888 120.368V135.152C192.888 137.328 193.08 138.693 193.464 139.248C193.848 139.803 194.274 140.08 194.744 140.08C195.512 140.08 196.365 139.632 197.304 138.736L198.456 140.4ZM178.808 139.248C179.917 139.248 181.005 138.971 182.072 138.416C183.181 137.819 184.333 136.731 185.528 135.152V127.792H180.728C178.637 127.792 177.122 128.283 176.184 129.264C175.245 130.245 174.776 131.781 174.776 133.872C174.776 135.579 175.117 136.901 175.8 137.84C176.482 138.779 177.485 139.248 178.808 139.248ZM199.805 96.432V94.64H212.093V125.68L223.357 114.928C224.851 113.52 225.64 112.667 225.725 112.368C225.853 112.069 225.555 111.877 224.829 111.792L221.309 111.344V109.552H234.429V111.344L230.909 111.792C230.525 111.835 230.205 111.92 229.949 112.048C229.693 112.176 229.331 112.453 228.861 112.88C228.392 113.264 227.645 113.947 226.621 114.928L220.477 120.816L229.565 136.624C230.163 137.605 230.611 138.309 230.909 138.736C231.208 139.12 231.485 139.376 231.741 139.504C232.04 139.589 232.403 139.675 232.829 139.76L236.349 140.208V142H224.125L215.229 125.808L212.093 128.816V136.624C212.093 138.075 212.157 138.949 212.285 139.248C212.413 139.504 212.819 139.675 213.501 139.76L217.021 140.208V142H199.805V140.208L203.325 139.76C204.008 139.675 204.413 139.504 204.541 139.248C204.669 138.949 204.733 138.075 204.733 136.624V100.016C204.733 98.5653 204.669 97.712 204.541 97.456C204.413 97.1573 204.008 96.9653 203.325 96.88L199.805 96.432ZM266.117 134.384C265.349 137.371 263.92 139.504 261.829 140.784C259.739 142.021 257.307 142.64 254.533 142.64C249.413 142.64 245.573 141.168 243.013 138.224C240.453 135.237 239.173 131.291 239.173 126.384V125.104C239.173 120.197 240.368 116.272 242.757 113.328C245.189 110.384 248.688 108.912 253.253 108.912C255.813 108.912 258.075 109.424 260.037 110.448C262.043 111.429 263.6 112.859 264.709 114.736C265.861 116.613 266.437 118.896 266.437 121.584C266.437 122.224 266.395 122.907 266.309 123.632C266.267 124.357 266.16 125.083 265.989 125.808H247.045V127.664C247.045 132.187 247.685 135.451 248.965 137.456C250.245 139.419 252.315 140.4 255.173 140.4C257.008 140.4 258.565 139.867 259.845 138.8C261.125 137.691 261.851 135.835 262.021 133.232L266.117 134.384ZM253.253 111.152C251.163 111.152 249.605 112.112 248.581 114.032C247.557 115.952 247.045 119.131 247.045 123.568H258.629C258.8 122.715 258.907 121.925 258.949 121.2C259.035 120.432 259.077 119.728 259.077 119.088C259.077 116.357 258.544 114.352 257.477 113.072C256.411 111.792 255.003 111.152 253.253 111.152Z" fill="#FF9D9D" fill-opacity="0.89"/>
<path d="M198.456 140.4L199.14 141.13L199.769 140.54L199.278 139.831L198.456 140.4ZM195.96 142L195.561 141.083L195.553 141.086L195.546 141.09L195.96 142ZM188.088 141.488L187.533 142.32L187.54 142.325L187.547 142.329L188.088 141.488ZM185.784 138.224L186.749 137.961L186.272 136.212L185.047 137.548L185.784 138.224ZM181.112 141.616L181.491 142.541L181.503 142.536L181.112 141.616ZM169.4 140.208L168.646 140.865L168.655 140.875L169.4 140.208ZM169.976 127.92L170.618 128.687L170.628 128.678L169.976 127.92ZM185.528 125.552V126.552H186.528V125.552H185.528ZM184.12 113.136L183.292 113.697L183.302 113.712L183.313 113.727L184.12 113.136ZM177.4 111.984L177.896 112.852L177.911 112.844L177.926 112.834L177.4 111.984ZM175.48 114.928L174.513 114.672L174.51 114.682L174.508 114.692L175.48 114.928ZM175.672 121.072L175.528 122.062L176.894 122.26L176.657 120.9L175.672 121.072ZM168.632 120.048L167.647 120.219L167.771 120.933L168.488 121.038L168.632 120.048ZM169.272 114.608L168.368 114.179L168.364 114.189L169.272 114.608ZM173.304 110.512L173.783 111.39L173.79 111.386L173.798 111.381L173.304 110.512ZM188.088 110.512L187.576 111.371L188.088 110.512ZM191.8 114.736L190.868 115.1L190.872 115.109L190.876 115.119L191.8 114.736ZM197.304 138.736L198.126 138.167L197.46 137.205L196.613 138.013L197.304 138.736ZM182.072 138.416L182.533 139.303L182.54 139.3L182.546 139.296L182.072 138.416ZM185.528 135.152L186.325 135.755L186.528 135.488V135.152H185.528ZM185.528 127.792H186.528V126.792H185.528V127.792ZM176.184 129.264L175.461 128.573L175.461 128.573L176.184 129.264ZM175.8 137.84L176.608 137.252L176.608 137.252L175.8 137.84ZM197.772 139.67C197.184 140.222 196.452 140.695 195.561 141.083L196.358 142.917C197.43 142.451 198.362 141.858 199.14 141.13L197.772 139.67ZM195.546 141.09C194.772 141.441 193.77 141.64 192.504 141.64V143.64C193.968 143.64 195.27 143.412 196.374 142.91L195.546 141.09ZM192.504 141.64C190.902 141.64 189.628 141.289 188.629 140.647L187.547 142.329C188.937 143.223 190.607 143.64 192.504 143.64V141.64ZM188.642 140.656C187.703 140.03 187.073 139.15 186.749 137.961L184.819 138.487C185.263 140.114 186.169 141.41 187.533 142.32L188.642 140.656ZM185.047 137.548C183.723 138.992 182.28 140.033 180.721 140.696L181.503 142.536C183.356 141.749 185.028 140.528 186.521 138.9L185.047 137.548ZM180.732 140.691C179.185 141.326 177.607 141.64 175.992 141.64V143.64C177.875 143.64 179.71 143.272 181.491 142.541L180.732 140.691ZM175.992 141.64C173.227 141.64 171.346 140.883 170.145 139.541L168.655 140.875C170.355 142.776 172.868 143.64 175.992 143.64V141.64ZM170.154 139.551C168.881 138.091 168.224 136.264 168.224 134H166.224C166.224 136.685 167.017 138.997 168.646 140.865L170.154 139.551ZM168.224 134C168.224 131.761 169.023 130.022 170.618 128.687L169.334 127.153C167.259 128.89 166.224 131.204 166.224 134H168.224ZM170.628 128.678C172.176 127.346 175.101 126.552 179.704 126.552V124.552C175.005 124.552 171.445 125.336 169.324 127.162L170.628 128.678ZM179.704 126.552H185.528V124.552H179.704V126.552ZM186.528 125.552V120.368H184.528V125.552H186.528ZM186.528 120.368C186.528 118.559 186.408 117.002 186.157 115.713C185.908 114.434 185.517 113.351 184.926 112.545L183.313 113.727C183.661 114.201 183.974 114.963 184.194 116.095C184.413 117.217 184.528 118.636 184.528 120.368H186.528ZM184.948 112.575C183.862 110.973 182.291 110.152 180.344 110.152V112.152C181.639 112.152 182.585 112.654 183.292 113.697L184.948 112.575ZM180.344 110.152C179.094 110.152 177.93 110.48 176.873 111.134L177.926 112.834C178.662 112.379 179.461 112.152 180.344 112.152V110.152ZM176.904 111.116C175.687 111.811 174.934 113.08 174.513 114.672L176.446 115.184C176.793 113.874 177.32 113.181 177.896 112.852L176.904 111.116ZM174.508 114.692C174.117 116.305 174.211 118.519 174.687 121.244L176.657 120.9C176.194 118.249 176.16 116.367 176.452 115.164L174.508 114.692ZM175.816 120.082L168.776 119.058L168.488 121.038L175.528 122.062L175.816 120.082ZM169.617 119.877C169.307 118.096 169.504 116.491 170.18 115.027L168.364 114.189C167.503 116.053 167.274 118.075 167.647 120.219L169.617 119.877ZM170.175 115.037C170.883 113.546 172.065 112.327 173.783 111.39L172.825 109.634C170.788 110.745 169.281 112.257 168.368 114.179L170.175 115.037ZM173.798 111.381C175.481 110.425 177.686 109.912 180.472 109.912V107.912C177.455 107.912 174.881 108.466 172.81 109.643L173.798 111.381ZM180.472 109.912C183.671 109.912 186.004 110.435 187.576 111.371L188.599 109.653C186.588 108.455 183.843 107.912 180.472 107.912V109.912ZM187.576 111.371C189.199 112.337 190.275 113.581 190.868 115.1L192.731 114.372C191.959 112.393 190.56 110.82 188.599 109.653L187.576 111.371ZM190.876 115.119C191.548 116.74 191.888 118.486 191.888 120.368H193.888C193.888 118.239 193.502 116.231 192.723 114.353L190.876 115.119ZM191.888 120.368V135.152H193.888V120.368H191.888ZM191.888 135.152C191.888 136.263 191.936 137.2 192.041 137.947C192.141 138.656 192.308 139.336 192.642 139.817L194.286 138.679C194.235 138.605 194.114 138.326 194.022 137.669C193.935 137.051 193.888 136.217 193.888 135.152H191.888ZM192.642 139.817C193.125 140.515 193.818 141.08 194.744 141.08V139.08C194.731 139.08 194.571 139.09 194.286 138.679L192.642 139.817ZM194.744 141.08C195.897 141.08 196.989 140.419 197.994 139.459L196.613 138.013C195.741 138.845 195.127 139.08 194.744 139.08V141.08ZM196.482 139.305L197.634 140.969L199.278 139.831L198.126 138.167L196.482 139.305ZM178.808 140.248C180.091 140.248 181.336 139.926 182.533 139.303L181.61 137.529C180.674 138.016 179.743 138.248 178.808 138.248V140.248ZM182.546 139.296C183.833 138.603 185.088 137.39 186.325 135.755L184.73 134.549C183.578 136.071 182.529 137.034 181.598 137.536L182.546 139.296ZM186.528 135.152V127.792H184.528V135.152H186.528ZM185.528 126.792H180.728V128.792H185.528V126.792ZM180.728 126.792C178.509 126.792 176.669 127.31 175.461 128.573L176.906 129.955C177.575 129.256 178.765 128.792 180.728 128.792V126.792ZM175.461 128.573C174.269 129.819 173.776 131.659 173.776 133.872H175.776C175.776 131.904 176.221 130.672 176.906 129.955L175.461 128.573ZM173.776 133.872C173.776 135.695 174.138 137.255 174.991 138.428L176.608 137.252C176.096 136.547 175.776 135.462 175.776 133.872H173.776ZM174.991 138.428C175.89 139.664 177.216 140.248 178.808 140.248V138.248C177.754 138.248 177.075 137.893 176.608 137.252L174.991 138.428ZM199.805 96.432H198.805V97.3128L199.679 97.424L199.805 96.432ZM199.805 94.64V93.64H198.805V94.64H199.805ZM212.093 94.64H213.093V93.64H212.093V94.64ZM212.093 125.68H211.093V128.017L212.784 126.403L212.093 125.68ZM223.357 114.928L222.671 114.2L222.667 114.205L223.357 114.928ZM225.725 112.368L224.806 111.974L224.781 112.032L224.764 112.093L225.725 112.368ZM224.829 111.792L224.703 112.784L224.712 112.785L224.829 111.792ZM221.309 111.344H220.309V112.225L221.183 112.336L221.309 111.344ZM221.309 109.552V108.552H220.309V109.552H221.309ZM234.429 109.552H235.429V108.552H234.429V109.552ZM234.429 111.344L234.556 112.336L235.429 112.225V111.344H234.429ZM230.909 111.792L231.02 112.786L231.028 112.785L231.036 112.784L230.909 111.792ZM229.949 112.048L229.502 111.154L229.502 111.154L229.949 112.048ZM228.861 112.88L229.494 113.654L229.515 113.637L229.534 113.62L228.861 112.88ZM226.621 114.928L227.313 115.65L227.313 115.65L226.621 114.928ZM220.477 120.816L219.785 120.094L219.22 120.636L219.61 121.314L220.477 120.816ZM229.565 136.624L228.698 137.122L228.705 137.133L228.711 137.144L229.565 136.624ZM230.909 138.736L230.09 139.309L230.104 139.33L230.12 139.35L230.909 138.736ZM231.741 139.504L231.294 140.398L231.377 140.44L231.467 140.466L231.741 139.504ZM232.829 139.76L232.633 140.741L232.668 140.748L232.703 140.752L232.829 139.76ZM236.349 140.208H237.349V139.327L236.476 139.216L236.349 140.208ZM236.349 142V143H237.349V142H236.349ZM224.125 142L223.249 142.482L223.534 143H224.125V142ZM215.229 125.808L216.106 125.326L215.478 124.184L214.537 125.086L215.229 125.808ZM212.093 128.816L211.401 128.094L211.093 128.39V128.816H212.093ZM212.285 139.248L211.366 139.642L211.378 139.669L211.391 139.695L212.285 139.248ZM213.501 139.76L213.628 138.768L213.625 138.768L213.501 139.76ZM217.021 140.208H218.021V139.327L217.148 139.216L217.021 140.208ZM217.021 142V143H218.021V142H217.021ZM199.805 142H198.805V143H199.805V142ZM199.805 140.208L199.679 139.216L198.805 139.327V140.208H199.805ZM203.325 139.76L203.201 138.768L203.199 138.768L203.325 139.76ZM204.541 139.248L205.436 139.695L205.449 139.669L205.46 139.642L204.541 139.248ZM204.541 97.456L203.622 97.8499L203.634 97.8769L203.647 97.9032L204.541 97.456ZM203.325 96.88L203.199 97.872L203.201 97.8723L203.325 96.88ZM200.805 96.432V94.64H198.805V96.432H200.805ZM199.805 95.64H212.093V93.64H199.805V95.64ZM211.093 94.64V125.68H213.093V94.64H211.093ZM212.784 126.403L224.048 115.651L222.667 114.205L211.403 124.957L212.784 126.403ZM224.043 115.656C224.796 114.946 225.386 114.362 225.803 113.911C226.011 113.686 226.189 113.481 226.326 113.301C226.437 113.155 226.609 112.915 226.687 112.643L224.764 112.093C224.799 111.971 224.841 111.949 224.733 112.091C224.651 112.199 224.522 112.351 224.335 112.553C223.963 112.955 223.412 113.502 222.671 114.2L224.043 115.656ZM226.644 112.762C226.749 112.518 226.808 112.187 226.686 111.835C226.568 111.497 226.332 111.284 226.138 111.159C225.785 110.932 225.333 110.844 224.946 110.799L224.712 112.785C224.862 112.803 224.965 112.823 225.032 112.841C225.105 112.861 225.099 112.869 225.056 112.841C225.011 112.812 224.872 112.708 224.797 112.493C224.717 112.263 224.766 112.069 224.806 111.974L226.644 112.762ZM224.956 110.8L221.436 110.352L221.183 112.336L224.703 112.784L224.956 110.8ZM222.309 111.344V109.552H220.309V111.344H222.309ZM221.309 110.552H234.429V108.552H221.309V110.552ZM233.429 109.552V111.344H235.429V109.552H233.429ZM234.303 110.352L230.783 110.8L231.036 112.784L234.556 112.336L234.303 110.352ZM230.799 110.798C230.336 110.85 229.893 110.958 229.502 111.154L230.396 112.942C230.517 112.882 230.715 112.82 231.02 112.786L230.799 110.798ZM229.502 111.154C229.113 111.348 228.664 111.708 228.189 112.14L229.534 113.62C229.997 113.199 230.273 113.004 230.396 112.942L229.502 111.154ZM228.228 112.106C227.725 112.517 226.954 113.224 225.929 114.206L227.313 115.65C228.336 114.669 229.058 114.011 229.494 113.654L228.228 112.106ZM225.929 114.206L219.785 120.094L221.169 121.538L227.313 115.65L225.929 114.206ZM219.61 121.314L228.698 137.122L230.432 136.126L221.344 120.318L219.61 121.314ZM228.711 137.144C229.31 138.127 229.772 138.855 230.09 139.309L231.728 138.163C231.45 137.764 231.016 137.083 230.419 136.104L228.711 137.144ZM230.12 139.35C230.455 139.78 230.842 140.172 231.294 140.398L232.188 138.61C232.128 138.58 231.961 138.46 231.699 138.122L230.12 139.35ZM231.467 140.466C231.799 140.561 232.19 140.652 232.633 140.741L233.025 138.779C232.616 138.697 232.281 138.618 232.016 138.542L231.467 140.466ZM232.703 140.752L236.223 141.2L236.476 139.216L232.956 138.768L232.703 140.752ZM235.349 140.208V142H237.349V140.208H235.349ZM236.349 141H224.125V143H236.349V141ZM225.002 141.518L216.106 125.326L214.353 126.29L223.249 142.482L225.002 141.518ZM214.537 125.086L211.401 128.094L212.785 129.538L215.921 126.53L214.537 125.086ZM211.093 128.816V136.624H213.093V128.816H211.093ZM211.093 136.624C211.093 137.36 211.109 137.969 211.144 138.441C211.175 138.862 211.227 139.317 211.366 139.642L213.204 138.854C213.216 138.88 213.172 138.749 213.139 138.295C213.109 137.892 213.093 137.338 213.093 136.624H211.093ZM211.391 139.695C211.606 140.125 211.988 140.359 212.297 140.49C212.618 140.625 212.99 140.704 213.377 140.752L213.625 138.768C213.33 138.731 213.158 138.682 213.073 138.646C212.978 138.606 213.093 138.627 213.18 138.801L211.391 139.695ZM213.375 140.752L216.895 141.2L217.148 139.216L213.628 138.768L213.375 140.752ZM216.021 140.208V142H218.021V140.208H216.021ZM217.021 141H199.805V143H217.021V141ZM200.805 142V140.208H198.805V142H200.805ZM199.932 141.2L203.452 140.752L203.199 138.768L199.679 139.216L199.932 141.2ZM203.449 140.752C203.836 140.704 204.209 140.625 204.529 140.49C204.839 140.359 205.221 140.125 205.436 139.695L203.647 138.801C203.734 138.627 203.849 138.606 203.753 138.646C203.668 138.682 203.497 138.731 203.201 138.768L203.449 140.752ZM205.46 139.642C205.6 139.317 205.652 138.862 205.683 138.441C205.717 137.969 205.733 137.36 205.733 136.624H203.733C203.733 137.338 203.717 137.892 203.688 138.295C203.655 138.749 203.611 138.88 203.622 138.854L205.46 139.642ZM205.733 136.624V100.016H203.733V136.624H205.733ZM205.733 100.016C205.733 99.2803 205.717 98.676 205.682 98.2132C205.665 97.9824 205.642 97.7716 205.611 97.5895C205.583 97.4286 205.535 97.2084 205.436 97.0088L203.647 97.9032C203.611 97.8316 203.62 97.8141 203.64 97.9305C203.656 98.0257 203.673 98.1669 203.688 98.3628C203.717 98.7534 203.733 99.3011 203.733 100.016H205.733ZM205.46 97.0621C205.269 96.6159 204.908 96.3449 204.569 96.1843C204.234 96.0253 203.846 95.9373 203.449 95.8877L203.201 97.8723C203.487 97.908 203.643 97.9587 203.713 97.9917C203.779 98.0231 203.685 97.9975 203.622 97.8499L205.46 97.0621ZM203.452 95.888L199.932 95.44L199.679 97.424L203.199 97.872L203.452 95.888ZM266.117 134.384L267.086 134.633L267.329 133.686L266.388 133.421L266.117 134.384ZM261.829 140.784L262.339 141.645L262.345 141.641L262.351 141.637L261.829 140.784ZM243.013 138.224L242.254 138.875L242.259 138.88L243.013 138.224ZM242.757 113.328L241.986 112.691L241.981 112.698L242.757 113.328ZM260.037 110.448L259.575 111.335L259.586 111.341L259.598 111.346L260.037 110.448ZM264.709 114.736L263.848 115.245L263.853 115.252L263.857 115.259L264.709 114.736ZM266.309 123.632L265.316 123.515L265.313 123.544L265.311 123.573L266.309 123.632ZM265.989 125.808V126.808H266.781L266.963 126.037L265.989 125.808ZM247.045 125.808V124.808H246.045V125.808H247.045ZM248.965 137.456L248.122 137.994L248.128 138.002L248.965 137.456ZM259.845 138.8L260.485 139.568L260.493 139.562L260.5 139.556L259.845 138.8ZM262.021 133.232L262.292 132.269L261.104 131.935L261.023 133.167L262.021 133.232ZM248.581 114.032L249.464 114.503L248.581 114.032ZM247.045 123.568H246.045V124.568H247.045V123.568ZM258.629 123.568V124.568H259.449L259.61 123.764L258.629 123.568ZM258.949 121.2L257.955 121.09L257.953 121.115L257.951 121.141L258.949 121.2ZM265.149 134.135C264.428 136.938 263.123 138.82 261.307 139.931L262.351 141.637C264.717 140.188 266.271 137.803 267.086 134.633L265.149 134.135ZM261.32 139.923C259.404 141.057 257.153 141.64 254.533 141.64V143.64C257.46 143.64 260.073 142.985 262.339 141.645L261.32 139.923ZM254.533 141.64C249.607 141.64 246.083 140.23 243.768 137.568L242.259 138.88C245.064 142.106 249.22 143.64 254.533 143.64V141.64ZM243.773 137.573C241.403 134.809 240.173 131.113 240.173 126.384H238.173C238.173 131.468 239.503 135.665 242.254 138.875L243.773 137.573ZM240.173 126.384V125.104H238.173V126.384H240.173ZM240.173 125.104C240.173 120.358 241.327 116.677 243.534 113.958L241.981 112.698C239.409 115.867 238.173 120.036 238.173 125.104H240.173ZM243.528 113.965C245.733 111.296 248.922 109.912 253.253 109.912V107.912C248.454 107.912 244.646 109.472 241.986 112.691L243.528 113.965ZM253.253 109.912C255.677 109.912 257.776 110.396 259.575 111.335L260.5 109.561C258.373 108.452 255.949 107.912 253.253 107.912V109.912ZM259.598 111.346C261.432 112.244 262.841 113.54 263.848 115.245L265.57 114.227C264.359 112.178 262.653 110.615 260.477 109.55L259.598 111.346ZM263.857 115.259C264.893 116.948 265.437 119.04 265.437 121.584H267.437C267.437 118.752 266.829 116.279 265.562 114.213L263.857 115.259ZM265.437 121.584C265.437 122.18 265.397 122.823 265.316 123.515L267.302 123.749C267.392 122.99 267.437 122.268 267.437 121.584H265.437ZM265.311 123.573C265.272 124.24 265.174 124.908 265.016 125.579L266.963 126.037C267.146 125.257 267.261 124.475 267.308 123.691L265.311 123.573ZM265.989 124.808H247.045V126.808H265.989V124.808ZM246.045 125.808V127.664H248.045V125.808H246.045ZM246.045 127.664C246.045 132.232 246.683 135.739 248.122 137.994L249.808 136.918C248.688 135.163 248.045 132.141 248.045 127.664H246.045ZM248.128 138.002C249.634 140.313 252.062 141.4 255.173 141.4V139.4C252.567 139.4 250.856 138.525 249.803 136.91L248.128 138.002ZM255.173 141.4C257.217 141.4 259.007 140.8 260.485 139.568L259.205 138.032C258.123 138.933 256.799 139.4 255.173 139.4V141.4ZM260.5 139.556C262.068 138.197 262.84 136.026 263.019 133.297L261.023 133.167C260.861 135.644 260.182 137.185 259.19 138.044L260.5 139.556ZM261.751 134.195L265.847 135.347L266.388 133.421L262.292 132.269L261.751 134.195ZM253.253 110.152C252.05 110.152 250.95 110.43 249.993 111.021C249.037 111.61 248.278 112.475 247.699 113.561L249.464 114.503C249.908 113.669 250.44 113.094 251.042 112.723C251.641 112.354 252.366 112.152 253.253 112.152V110.152ZM247.699 113.561C246.552 115.712 246.045 119.104 246.045 123.568H248.045C248.045 119.158 248.563 116.192 249.464 114.503L247.699 113.561ZM247.045 124.568H258.629V122.568H247.045V124.568ZM259.61 123.764C259.788 122.874 259.902 122.038 259.948 121.259L257.951 121.141C257.911 121.812 257.812 122.555 257.649 123.372L259.61 123.764ZM259.943 121.31C260.032 120.513 260.077 119.772 260.077 119.088H258.077C258.077 119.684 258.037 120.351 257.955 121.09L259.943 121.31ZM260.077 119.088C260.077 116.262 259.532 113.975 258.245 112.432L256.709 113.712C257.556 114.729 258.077 116.452 258.077 119.088H260.077ZM258.245 112.432C256.978 110.911 255.282 110.152 253.253 110.152V112.152C254.723 112.152 255.843 112.673 256.709 113.712L258.245 112.432Z" fill="#4353FF" fill-opacity="0.77" mask="url(#path-6-outside-1_296_40)"/>
<mask id="path-8-outside-2_296_40" maskUnits="userSpaceOnUse" x="169" y="45" width="105" height="51" fill="black">
<rect fill="white" x="169" y="45" width="105" height="51"/>
<path d="M197.586 86.384C196.818 89.3707 195.389 91.504 193.298 92.784C191.207 94.0213 188.775 94.64 186.002 94.64C180.882 94.64 177.042 93.168 174.482 90.224C171.922 87.2373 170.642 83.2907 170.642 78.384V77.104C170.642 72.1973 171.837 68.272 174.226 65.328C176.658 62.384 180.157 60.912 184.722 60.912C187.282 60.912 189.543 61.424 191.506 62.448C193.511 63.4293 195.069 64.8587 196.178 66.736C197.33 68.6133 197.906 70.896 197.906 73.584C197.906 74.224 197.863 74.9067 197.778 75.632C197.735 76.3573 197.629 77.0827 197.458 77.808H178.514V79.664C178.514 84.1867 179.154 87.4507 180.434 89.456C181.714 91.4187 183.783 92.4 186.642 92.4C188.477 92.4 190.034 91.8667 191.314 90.8C192.594 89.6907 193.319 87.8347 193.49 85.232L197.586 86.384ZM184.722 63.152C182.631 63.152 181.074 64.112 180.05 66.032C179.026 67.952 178.514 71.1307 178.514 75.568H190.098C190.269 74.7147 190.375 73.9253 190.418 73.2C190.503 72.432 190.546 71.728 190.546 71.088C190.546 68.3573 190.013 66.352 188.946 65.072C187.879 63.792 186.471 63.152 184.722 63.152ZM218.469 63.152C216.421 63.152 214.885 64.1333 213.861 66.096C212.88 68.016 212.389 71.2587 212.389 75.824V79.664C212.389 84.1867 212.965 87.4507 214.117 89.456C215.269 91.4187 217.146 92.4 219.749 92.4C221.669 92.4 223.226 91.8667 224.421 90.8C225.658 89.6907 226.362 87.8347 226.533 85.232L230.629 86.384C229.861 89.3707 228.453 91.504 226.405 92.784C224.4 94.0213 222.032 94.64 219.301 94.64C214.394 94.64 210.704 93.168 208.229 90.224C205.754 87.2373 204.517 83.2907 204.517 78.384V77.104C204.517 72.1973 205.712 68.272 208.101 65.328C210.49 62.384 213.946 60.912 218.469 60.912C221.456 60.912 223.888 61.5093 225.765 62.704C227.685 63.856 229.029 65.392 229.797 67.312C230.608 69.1893 230.821 71.216 230.437 73.392L223.397 74.416C223.866 70.832 223.674 68.0587 222.821 66.096C221.968 64.1333 220.517 63.152 218.469 63.152ZM272.033 92.208V94H254.817V92.208L258.337 91.76C259.019 91.6747 259.425 91.504 259.553 91.248C259.681 90.9493 259.745 90.0747 259.745 88.624V72.496C259.745 69.552 259.297 67.4187 258.401 66.096C257.547 64.7307 256.267 64.048 254.561 64.048C253.835 64.048 252.982 64.24 252.001 64.624C251.062 64.9653 250.102 65.6053 249.121 66.544C248.182 67.4827 247.35 68.8693 246.625 70.704V88.624C246.625 90.0747 246.689 90.9493 246.817 91.248C246.945 91.504 247.35 91.6747 248.033 91.76L251.553 92.208V94H234.337V92.208L237.857 91.76C238.539 91.6747 238.945 91.504 239.073 91.248C239.201 90.9493 239.265 90.0747 239.265 88.624V52.016C239.265 50.5653 239.201 49.712 239.073 49.456C238.945 49.1573 238.539 48.9653 237.857 48.88L234.337 48.432V46.64H246.625V66.544C247.862 64.5813 249.398 63.152 251.233 62.256C253.11 61.36 254.987 60.912 256.865 60.912C260.022 60.912 262.518 61.9147 264.353 63.92C266.187 65.9253 267.104 68.7627 267.104 72.432V88.624C267.104 90.0747 267.169 90.9493 267.297 91.248C267.425 91.504 267.83 91.6747 268.513 91.76L272.033 92.208Z"/>
</mask>
<path d="M197.586 86.384C196.818 89.3707 195.389 91.504 193.298 92.784C191.207 94.0213 188.775 94.64 186.002 94.64C180.882 94.64 177.042 93.168 174.482 90.224C171.922 87.2373 170.642 83.2907 170.642 78.384V77.104C170.642 72.1973 171.837 68.272 174.226 65.328C176.658 62.384 180.157 60.912 184.722 60.912C187.282 60.912 189.543 61.424 191.506 62.448C193.511 63.4293 195.069 64.8587 196.178 66.736C197.33 68.6133 197.906 70.896 197.906 73.584C197.906 74.224 197.863 74.9067 197.778 75.632C197.735 76.3573 197.629 77.0827 197.458 77.808H178.514V79.664C178.514 84.1867 179.154 87.4507 180.434 89.456C181.714 91.4187 183.783 92.4 186.642 92.4C188.477 92.4 190.034 91.8667 191.314 90.8C192.594 89.6907 193.319 87.8347 193.49 85.232L197.586 86.384ZM184.722 63.152C182.631 63.152 181.074 64.112 180.05 66.032C179.026 67.952 178.514 71.1307 178.514 75.568H190.098C190.269 74.7147 190.375 73.9253 190.418 73.2C190.503 72.432 190.546 71.728 190.546 71.088C190.546 68.3573 190.013 66.352 188.946 65.072C187.879 63.792 186.471 63.152 184.722 63.152ZM218.469 63.152C216.421 63.152 214.885 64.1333 213.861 66.096C212.88 68.016 212.389 71.2587 212.389 75.824V79.664C212.389 84.1867 212.965 87.4507 214.117 89.456C215.269 91.4187 217.146 92.4 219.749 92.4C221.669 92.4 223.226 91.8667 224.421 90.8C225.658 89.6907 226.362 87.8347 226.533 85.232L230.629 86.384C229.861 89.3707 228.453 91.504 226.405 92.784C224.4 94.0213 222.032 94.64 219.301 94.64C214.394 94.64 210.704 93.168 208.229 90.224C205.754 87.2373 204.517 83.2907 204.517 78.384V77.104C204.517 72.1973 205.712 68.272 208.101 65.328C210.49 62.384 213.946 60.912 218.469 60.912C221.456 60.912 223.888 61.5093 225.765 62.704C227.685 63.856 229.029 65.392 229.797 67.312C230.608 69.1893 230.821 71.216 230.437 73.392L223.397 74.416C223.866 70.832 223.674 68.0587 222.821 66.096C221.968 64.1333 220.517 63.152 218.469 63.152ZM272.033 92.208V94H254.817V92.208L258.337 91.76C259.019 91.6747 259.425 91.504 259.553 91.248C259.681 90.9493 259.745 90.0747 259.745 88.624V72.496C259.745 69.552 259.297 67.4187 258.401 66.096C257.547 64.7307 256.267 64.048 254.561 64.048C253.835 64.048 252.982 64.24 252.001 64.624C251.062 64.9653 250.102 65.6053 249.121 66.544C248.182 67.4827 247.35 68.8693 246.625 70.704V88.624C246.625 90.0747 246.689 90.9493 246.817 91.248C246.945 91.504 247.35 91.6747 248.033 91.76L251.553 92.208V94H234.337V92.208L237.857 91.76C238.539 91.6747 238.945 91.504 239.073 91.248C239.201 90.9493 239.265 90.0747 239.265 88.624V52.016C239.265 50.5653 239.201 49.712 239.073 49.456C238.945 49.1573 238.539 48.9653 237.857 48.88L234.337 48.432V46.64H246.625V66.544C247.862 64.5813 249.398 63.152 251.233 62.256C253.11 61.36 254.987 60.912 256.865 60.912C260.022 60.912 262.518 61.9147 264.353 63.92C266.187 65.9253 267.104 68.7627 267.104 72.432V88.624C267.104 90.0747 267.169 90.9493 267.297 91.248C267.425 91.504 267.83 91.6747 268.513 91.76L272.033 92.208Z" fill="#4353FF" fill-opacity="0.77"/>
<path d="M197.586 86.384L198.554 86.633L198.798 85.6861L197.857 85.4213L197.586 86.384ZM193.298 92.784L193.807 93.6446L193.814 93.6408L193.82 93.6369L193.298 92.784ZM174.482 90.224L173.723 90.8748L173.727 90.8802L174.482 90.224ZM174.226 65.328L173.455 64.6911L173.45 64.6978L174.226 65.328ZM191.506 62.448L191.043 63.3346L191.055 63.3405L191.066 63.3462L191.506 62.448ZM196.178 66.736L195.317 67.2447L195.321 67.2519L195.326 67.259L196.178 66.736ZM197.778 75.632L196.785 75.5152L196.781 75.5441L196.78 75.5733L197.778 75.632ZM197.458 77.808V78.808H198.25L198.431 78.037L197.458 77.808ZM178.514 77.808V76.808H177.514V77.808H178.514ZM180.434 89.456L179.591 89.9941L179.596 90.0023L180.434 89.456ZM191.314 90.8L191.954 91.5682L191.962 91.562L191.969 91.5557L191.314 90.8ZM193.49 85.232L193.761 84.2693L192.573 83.9353L192.492 85.1666L193.49 85.232ZM180.05 66.032L180.932 66.5026L180.05 66.032ZM178.514 75.568H177.514V76.568H178.514V75.568ZM190.098 75.568V76.568H190.918L191.079 75.7641L190.098 75.568ZM190.418 73.2L189.424 73.0896L189.421 73.1154L189.42 73.1413L190.418 73.2ZM196.618 86.135C195.897 88.9381 194.591 90.8195 192.776 91.9311L193.82 93.6369C196.186 92.1885 197.739 89.8032 198.554 86.633L196.618 86.135ZM192.789 91.9234C190.873 93.0572 188.622 93.64 186.002 93.64V95.64C188.929 95.64 191.542 94.9855 193.807 93.6446L192.789 91.9234ZM186.002 93.64C181.075 93.64 177.552 92.2301 175.237 89.5678L173.727 90.8802C176.532 94.1059 180.689 95.64 186.002 95.64V93.64ZM175.241 89.5732C172.872 86.8093 171.642 83.113 171.642 78.384H169.642C169.642 83.4684 170.972 87.6654 173.723 90.8748L175.241 89.5732ZM171.642 78.384V77.104H169.642V78.384H171.642ZM171.642 77.104C171.642 72.3584 172.796 68.6773 175.002 65.9582L173.45 64.6978C170.878 67.8667 169.642 72.0362 169.642 77.104H171.642ZM174.997 65.9649C177.201 63.2963 180.39 61.912 184.722 61.912V59.912C179.923 59.912 176.115 61.4716 173.455 64.6911L174.997 65.9649ZM184.722 61.912C187.146 61.912 189.244 62.396 191.043 63.3346L191.969 61.5614C189.842 60.452 187.418 59.912 184.722 59.912V61.912ZM191.066 63.3462C192.901 64.2438 194.31 65.5398 195.317 67.2447L197.039 66.2273C195.828 64.1775 194.122 62.6148 191.946 61.5498L191.066 63.3462ZM195.326 67.259C196.362 68.9475 196.906 71.0399 196.906 73.584H198.906C198.906 70.7521 198.298 68.2791 197.03 66.213L195.326 67.259ZM196.906 73.584C196.906 74.18 196.866 74.8233 196.785 75.5152L198.771 75.7488C198.86 74.99 198.906 74.268 198.906 73.584H196.906ZM196.78 75.5733C196.741 76.2398 196.642 76.9082 196.485 77.579L198.431 78.037C198.615 77.2572 198.73 76.4749 198.776 75.6907L196.78 75.5733ZM197.458 76.808H178.514V78.808H197.458V76.808ZM177.514 77.808V79.664H179.514V77.808H177.514ZM177.514 79.664C177.514 84.2324 178.151 87.7387 179.591 89.994L181.277 88.918C180.157 87.1627 179.514 84.1409 179.514 79.664H177.514ZM179.596 90.0023C181.103 92.3127 183.531 93.4 186.642 93.4V91.4C184.036 91.4 182.325 90.5246 181.272 88.9097L179.596 90.0023ZM186.642 93.4C188.685 93.4 190.476 92.8001 191.954 91.5682L190.674 90.0318C189.592 90.9332 188.268 91.4 186.642 91.4V93.4ZM191.969 91.5557C193.537 90.1965 194.309 88.0257 194.488 85.2974L192.492 85.1666C192.33 87.6436 191.651 89.1848 190.659 90.0443L191.969 91.5557ZM193.219 86.1947L197.315 87.3467L197.857 85.4213L193.761 84.2693L193.219 86.1947ZM184.722 62.152C183.518 62.152 182.419 62.4302 181.461 63.0207C180.505 63.6099 179.747 64.4748 179.168 65.5614L180.932 66.5026C181.377 65.6692 181.909 65.0941 182.511 64.7233C183.11 64.3538 183.835 64.152 184.722 64.152V62.152ZM179.168 65.5614C178.021 67.7119 177.514 71.1036 177.514 75.568H179.514C179.514 71.1578 180.031 68.1921 180.932 66.5026L179.168 65.5614ZM178.514 76.568H190.098V74.568H178.514V76.568ZM191.079 75.7641C191.257 74.874 191.37 74.0382 191.416 73.2587L189.42 73.1413C189.38 73.8125 189.281 74.5553 189.117 75.3719L191.079 75.7641ZM191.412 73.3104C191.5 72.513 191.546 71.7715 191.546 71.088H189.546C189.546 71.6845 189.506 72.351 189.424 73.0896L191.412 73.3104ZM191.546 71.088C191.546 68.2622 191 65.9752 189.714 64.4318L188.178 65.7122C189.025 66.7288 189.546 68.4525 189.546 71.088H191.546ZM189.714 64.4318C188.447 62.9111 186.751 62.152 184.722 62.152V64.152C186.192 64.152 187.312 64.6729 188.178 65.7122L189.714 64.4318ZM213.861 66.096L212.974 65.6334L212.971 65.6409L213.861 66.096ZM214.117 89.456L213.25 89.9541L213.255 89.9622L214.117 89.456ZM224.421 90.8L225.087 91.5459L225.089 91.5446L224.421 90.8ZM226.533 85.232L226.804 84.2693L225.616 83.9353L225.535 85.1666L226.533 85.232ZM230.629 86.384L231.597 86.633L231.841 85.6861L230.9 85.4213L230.629 86.384ZM226.405 92.784L226.93 93.635L226.935 93.632L226.405 92.784ZM208.229 90.224L207.459 90.862L207.464 90.8675L208.229 90.224ZM225.765 62.704L225.228 63.5477L225.239 63.5547L225.251 63.5615L225.765 62.704ZM229.797 67.312L228.869 67.6834L228.874 67.696L228.879 67.7084L229.797 67.312ZM230.437 73.392L230.581 74.3816L231.296 74.2776L231.422 73.5658L230.437 73.392ZM223.397 74.416L222.405 74.2862L222.234 75.5957L223.541 75.4056L223.397 74.416ZM218.469 62.152C217.279 62.152 216.191 62.4396 215.243 63.0453C214.299 63.6483 213.55 64.5303 212.974 65.6334L214.748 66.5586C215.196 65.6991 215.727 65.109 216.319 64.7307C216.907 64.3551 217.611 64.152 218.469 64.152V62.152ZM212.971 65.6409C211.873 67.788 211.389 71.2394 211.389 75.824H213.389C213.389 71.2779 213.886 68.244 214.751 66.5511L212.971 65.6409ZM211.389 75.824V79.664H213.389V75.824H211.389ZM211.389 79.664C211.389 84.2237 211.961 87.711 213.25 89.9541L214.984 88.9579C213.969 87.1904 213.389 84.1496 213.389 79.664H211.389ZM213.255 89.9622C214.615 92.2799 216.853 93.4 219.749 93.4V91.4C217.44 91.4 215.923 90.5575 214.979 88.9498L213.255 89.9622ZM219.749 93.4C221.863 93.4 223.674 92.8075 225.087 91.5459L223.755 90.0541C222.779 90.9258 221.475 91.4 219.749 91.4V93.4ZM225.089 91.5446C226.606 90.1838 227.353 88.0173 227.531 85.2974L225.535 85.1666C225.372 87.652 224.71 89.1976 223.753 90.0554L225.089 91.5446ZM226.262 86.1947L230.358 87.3467L230.9 85.4213L226.804 84.2693L226.262 86.1947ZM229.661 86.135C228.938 88.9447 227.65 90.8267 225.875 91.936L226.935 93.632C229.256 92.1813 230.784 89.7966 231.597 86.633L229.661 86.135ZM225.88 91.933C224.056 93.0583 221.876 93.64 219.301 93.64V95.64C222.187 95.64 224.743 94.9844 226.93 93.635L225.88 91.933ZM219.301 93.64C214.602 93.64 211.229 92.2389 208.994 89.5805L207.464 90.8675C210.178 94.0971 214.187 95.64 219.301 95.64V93.64ZM208.999 89.586C206.709 86.822 205.517 83.1209 205.517 78.384H203.517C203.517 83.4604 204.8 87.6527 207.459 90.862L208.999 89.586ZM205.517 78.384V77.104H203.517V78.384H205.517ZM205.517 77.104C205.517 72.3584 206.671 68.6773 208.877 65.9582L207.325 64.6978C204.753 67.8667 203.517 72.0362 203.517 77.104H205.517ZM208.877 65.9582C211.04 63.294 214.183 61.912 218.469 61.912V59.912C213.71 59.912 209.941 61.474 207.325 64.6978L208.877 65.9582ZM218.469 61.912C221.329 61.912 223.557 62.4845 225.228 63.5477L226.302 61.8603C224.218 60.5342 221.583 59.912 218.469 59.912V61.912ZM225.251 63.5615C227 64.6109 228.189 65.9834 228.869 67.6834L230.725 66.9406C229.869 64.8005 228.37 63.1011 226.279 61.8465L225.251 63.5615ZM228.879 67.7084C229.606 69.3918 229.805 71.2185 229.452 73.2182L231.422 73.5658C231.837 71.2135 231.61 68.9869 230.715 66.9156L228.879 67.7084ZM230.293 72.4024L223.253 73.4264L223.541 75.4056L230.581 74.3816L230.293 72.4024ZM224.389 74.5458C224.867 70.8917 224.698 67.9044 223.738 65.6973L221.904 66.4947C222.651 68.2129 222.866 70.7723 222.405 74.2862L224.389 74.5458ZM223.738 65.6973C223.253 64.5806 222.568 63.6782 221.653 63.0597C220.736 62.4392 219.658 62.152 218.469 62.152V64.152C219.328 64.152 219.999 64.3555 220.533 64.7163C221.069 65.0791 221.536 65.6487 221.904 66.4947L223.738 65.6973ZM272.033 92.208H273.033V91.3272L272.159 91.216L272.033 92.208ZM272.033 94V95H273.033V94H272.033ZM254.817 94H253.817V95H254.817V94ZM254.817 92.208L254.69 91.216L253.817 91.3272V92.208H254.817ZM258.337 91.76L258.212 90.7677L258.21 90.768L258.337 91.76ZM259.553 91.248L260.447 91.6952L260.46 91.6689L260.472 91.6419L259.553 91.248ZM258.401 66.096L257.553 66.626L257.562 66.6416L257.573 66.6568L258.401 66.096ZM252.001 64.624L252.342 65.5638L252.354 65.5597L252.365 65.5552L252.001 64.624ZM249.121 66.544L248.429 65.8214L248.421 65.829L248.413 65.8369L249.121 66.544ZM246.625 70.704L245.695 70.3363L245.625 70.5135V70.704H246.625ZM246.817 91.248L245.897 91.6419L245.909 91.6689L245.922 91.6952L246.817 91.248ZM248.033 91.76L248.159 90.768L248.157 90.7677L248.033 91.76ZM251.553 92.208H252.553V91.3272L251.679 91.216L251.553 92.208ZM251.553 94V95H252.553V94H251.553ZM234.337 94H233.337V95H234.337V94ZM234.337 92.208L234.21 91.216L233.337 91.3272V92.208H234.337ZM237.857 91.76L237.732 90.7677L237.73 90.768L237.857 91.76ZM239.073 91.248L239.967 91.6952L239.98 91.6689L239.992 91.6419L239.073 91.248ZM239.073 49.456L238.153 49.8499L238.165 49.8769L238.178 49.9032L239.073 49.456ZM237.857 48.88L237.73 49.872L237.732 49.8723L237.857 48.88ZM234.337 48.432H233.337V49.3128L234.21 49.424L234.337 48.432ZM234.337 46.64V45.64H233.337V46.64H234.337ZM246.625 46.64H247.625V45.64H246.625V46.64ZM246.625 66.544H245.625V70.0053L247.47 67.0773L246.625 66.544ZM251.233 62.256L250.802 61.3535L250.794 61.3574L251.233 62.256ZM264.353 63.92L265.09 63.245L265.09 63.245L264.353 63.92ZM267.297 91.248L266.377 91.6419L266.389 91.6689L266.402 91.6952L267.297 91.248ZM268.513 91.76L268.639 90.768L268.637 90.7677L268.513 91.76ZM271.033 92.208V94H273.033V92.208H271.033ZM272.033 93H254.817V95H272.033V93ZM255.817 94V92.208H253.817V94H255.817ZM254.943 93.2L258.463 92.752L258.21 90.768L254.69 91.216L254.943 93.2ZM258.461 92.7523C258.848 92.7039 259.22 92.6246 259.541 92.4896C259.85 92.3593 260.232 92.1254 260.447 91.6952L258.658 90.8008C258.745 90.6266 258.86 90.6061 258.764 90.6464C258.68 90.6821 258.508 90.7308 258.212 90.7677L258.461 92.7523ZM260.472 91.6419C260.611 91.3172 260.663 90.8618 260.694 90.441C260.728 89.9689 260.745 89.3602 260.745 88.624H258.745C258.745 89.3385 258.729 89.8925 258.699 90.295C258.666 90.7489 258.622 90.8801 258.633 90.8541L260.472 91.6419ZM260.745 88.624V72.496H258.745V88.624H260.745ZM260.745 72.496C260.745 69.4971 260.297 67.1125 259.228 65.5352L257.573 66.6568C258.296 67.7248 258.745 69.6069 258.745 72.496H260.745ZM259.248 65.566C258.2 63.8877 256.587 63.048 254.561 63.048V65.048C255.947 65.048 256.895 65.5736 257.553 66.626L259.248 65.566ZM254.561 63.048C253.668 63.048 252.686 63.2821 251.636 63.6928L252.365 65.5552C253.278 65.1979 254.003 65.048 254.561 65.048V63.048ZM251.659 63.6842C250.552 64.0867 249.477 64.8193 248.429 65.8214L249.812 67.2666C250.727 66.3913 251.572 65.844 252.342 65.5638L251.659 63.6842ZM248.413 65.8369C247.343 66.9075 246.448 68.4308 245.695 70.3363L247.554 71.0717C248.252 69.3079 249.021 68.0579 249.828 67.2511L248.413 65.8369ZM245.625 70.704V88.624H247.625V70.704H245.625ZM245.625 88.624C245.625 89.3602 245.641 89.9689 245.675 90.441C245.706 90.8618 245.758 91.3172 245.897 91.6419L247.736 90.8541C247.747 90.8801 247.703 90.7489 247.67 90.295C247.64 89.8925 247.625 89.3385 247.625 88.624H245.625ZM245.922 91.6952C246.137 92.1254 246.519 92.3593 246.828 92.4896C247.149 92.6246 247.521 92.7039 247.908 92.7523L248.157 90.7677C247.861 90.7308 247.689 90.6821 247.605 90.6464C247.509 90.6061 247.624 90.6266 247.711 90.8008L245.922 91.6952ZM247.906 92.752L251.426 93.2L251.679 91.216L248.159 90.768L247.906 92.752ZM250.553 92.208V94H252.553V92.208H250.553ZM251.553 93H234.337V95H251.553V93ZM235.337 94V92.208H233.337V94H235.337ZM234.463 93.2L237.983 92.752L237.73 90.768L234.21 91.216L234.463 93.2ZM237.981 92.7523C238.368 92.7039 238.74 92.6246 239.061 92.4896C239.37 92.3593 239.752 92.1254 239.967 91.6952L238.178 90.8008C238.265 90.6266 238.38 90.6061 238.284 90.6464C238.2 90.6821 238.028 90.7308 237.732 90.7677L237.981 92.7523ZM239.992 91.6419C240.131 91.3172 240.183 90.8618 240.214 90.441C240.248 89.9689 240.265 89.3602 240.265 88.624H238.265C238.265 89.3385 238.249 89.8925 238.219 90.295C238.186 90.7489 238.142 90.8801 238.153 90.8541L239.992 91.6419ZM240.265 88.624V52.016H238.265V88.624H240.265ZM240.265 52.016C240.265 51.2803 240.248 50.676 240.214 50.2132C240.196 49.9824 240.173 49.7716 240.142 49.5895C240.114 49.4286 240.067 49.2084 239.967 49.0088L238.178 49.9032C238.142 49.8316 238.151 49.8141 238.171 49.9305C238.188 50.0257 238.205 50.1669 238.219 50.3628C238.249 50.7534 238.265 51.3011 238.265 52.016H240.265ZM239.992 49.0621C239.8 48.6159 239.44 48.3449 239.101 48.1843C238.765 48.0253 238.377 47.9373 237.981 47.8877L237.732 49.8723C238.018 49.908 238.175 49.9587 238.244 49.9917C238.311 50.0231 238.217 49.9975 238.153 49.8499L239.992 49.0621ZM237.983 47.888L234.463 47.44L234.21 49.424L237.73 49.872L237.983 47.888ZM235.337 48.432V46.64H233.337V48.432H235.337ZM234.337 47.64H246.625V45.64H234.337V47.64ZM245.625 46.64V66.544H247.625V46.64H245.625ZM247.47 67.0773C248.622 65.2499 250.026 63.9583 251.671 63.1546L250.794 61.3574C248.77 62.3457 247.101 63.9128 245.779 66.0107L247.47 67.0773ZM251.663 63.1585C253.421 62.3197 255.152 61.912 256.865 61.912V59.912C254.823 59.912 252.799 60.4003 250.802 61.3535L251.663 63.1585ZM256.865 61.912C259.791 61.912 262.001 62.8308 263.615 64.595L265.09 63.245C263.035 60.9985 260.253 59.912 256.865 59.912V61.912ZM263.615 64.595C265.229 66.3596 266.104 68.9238 266.104 72.432H268.104C268.104 68.6016 267.145 65.4911 265.09 63.245L263.615 64.595ZM266.104 72.432V88.624H268.104V72.432H266.104ZM266.104 88.624C266.104 89.3602 266.121 89.9689 266.155 90.441C266.186 90.8618 266.238 91.3172 266.377 91.6419L268.216 90.8541C268.227 90.8801 268.183 90.7489 268.15 90.295C268.12 89.8925 268.104 89.3385 268.104 88.624H266.104ZM266.402 91.6952C266.617 92.1254 266.999 92.3593 267.308 92.4896C267.629 92.6246 268.001 92.7039 268.388 92.7523L268.637 90.7677C268.341 90.7308 268.169 90.6821 268.085 90.6464C267.989 90.6061 268.104 90.6266 268.191 90.8008L266.402 91.6952ZM268.386 92.752L271.906 93.2L272.159 91.216L268.639 90.768L268.386 92.752Z" fill="#4353FF" mask="url(#path-8-outside-2_296_40)"/>
<path d="M197.586 86.384L198.554 86.633L198.798 85.6861L197.857 85.4213L197.586 86.384ZM193.298 92.784L193.807 93.6446L193.814 93.6408L193.82 93.6369L193.298 92.784ZM174.482 90.224L173.723 90.8748L173.727 90.8802L174.482 90.224ZM174.226 65.328L173.455 64.6911L173.45 64.6978L174.226 65.328ZM191.506 62.448L191.043 63.3346L191.055 63.3405L191.066 63.3462L191.506 62.448ZM196.178 66.736L195.317 67.2447L195.321 67.2519L195.326 67.259L196.178 66.736ZM197.778 75.632L196.785 75.5152L196.781 75.5441L196.78 75.5733L197.778 75.632ZM197.458 77.808V78.808H198.25L198.431 78.037L197.458 77.808ZM178.514 77.808V76.808H177.514V77.808H178.514ZM180.434 89.456L179.591 89.9941L179.596 90.0023L180.434 89.456ZM191.314 90.8L191.954 91.5682L191.962 91.562L191.969 91.5557L191.314 90.8ZM193.49 85.232L193.761 84.2693L192.573 83.9353L192.492 85.1666L193.49 85.232ZM180.05 66.032L180.932 66.5026L180.05 66.032ZM178.514 75.568H177.514V76.568H178.514V75.568ZM190.098 75.568V76.568H190.918L191.079 75.7641L190.098 75.568ZM190.418 73.2L189.424 73.0896L189.421 73.1154L189.42 73.1413L190.418 73.2ZM196.618 86.135C195.897 88.9381 194.591 90.8195 192.776 91.9311L193.82 93.6369C196.186 92.1885 197.739 89.8032 198.554 86.633L196.618 86.135ZM192.789 91.9234C190.873 93.0572 188.622 93.64 186.002 93.64V95.64C188.929 95.64 191.542 94.9855 193.807 93.6446L192.789 91.9234ZM186.002 93.64C181.075 93.64 177.552 92.2301 175.237 89.5678L173.727 90.8802C176.532 94.1059 180.689 95.64 186.002 95.64V93.64ZM175.241 89.5732C172.872 86.8093 171.642 83.113 171.642 78.384H169.642C169.642 83.4684 170.972 87.6654 173.723 90.8748L175.241 89.5732ZM171.642 78.384V77.104H169.642V78.384H171.642ZM171.642 77.104C171.642 72.3584 172.796 68.6773 175.002 65.9582L173.45 64.6978C170.878 67.8667 169.642 72.0362 169.642 77.104H171.642ZM174.997 65.9649C177.201 63.2963 180.39 61.912 184.722 61.912V59.912C179.923 59.912 176.115 61.4716 173.455 64.6911L174.997 65.9649ZM184.722 61.912C187.146 61.912 189.244 62.396 191.043 63.3346L191.969 61.5614C189.842 60.452 187.418 59.912 184.722 59.912V61.912ZM191.066 63.3462C192.901 64.2438 194.31 65.5398 195.317 67.2447L197.039 66.2273C195.828 64.1775 194.122 62.6148 191.946 61.5498L191.066 63.3462ZM195.326 67.259C196.362 68.9475 196.906 71.0399 196.906 73.584H198.906C198.906 70.7521 198.298 68.2791 197.03 66.213L195.326 67.259ZM196.906 73.584C196.906 74.18 196.866 74.8233 196.785 75.5152L198.771 75.7488C198.86 74.99 198.906 74.268 198.906 73.584H196.906ZM196.78 75.5733C196.741 76.2398 196.642 76.9082 196.485 77.579L198.431 78.037C198.615 77.2572 198.73 76.4749 198.776 75.6907L196.78 75.5733ZM197.458 76.808H178.514V78.808H197.458V76.808ZM177.514 77.808V79.664H179.514V77.808H177.514ZM177.514 79.664C177.514 84.2324 178.151 87.7387 179.591 89.994L181.277 88.918C180.157 87.1627 179.514 84.1409 179.514 79.664H177.514ZM179.596 90.0023C181.103 92.3127 183.531 93.4 186.642 93.4V91.4C184.036 91.4 182.325 90.5246 181.272 88.9097L179.596 90.0023ZM186.642 93.4C188.685 93.4 190.476 92.8001 191.954 91.5682L190.674 90.0318C189.592 90.9332 188.268 91.4 186.642 91.4V93.4ZM191.969 91.5557C193.537 90.1965 194.309 88.0257 194.488 85.2974L192.492 85.1666C192.33 87.6436 191.651 89.1848 190.659 90.0443L191.969 91.5557ZM193.219 86.1947L197.315 87.3467L197.857 85.4213L193.761 84.2693L193.219 86.1947ZM184.722 62.152C183.518 62.152 182.419 62.4302 181.461 63.0207C180.505 63.6099 179.747 64.4748 179.168 65.5614L180.932 66.5026C181.377 65.6692 181.909 65.0941 182.511 64.7233C183.11 64.3538 183.835 64.152 184.722 64.152V62.152ZM179.168 65.5614C178.021 67.7119 177.514 71.1036 177.514 75.568H179.514C179.514 71.1578 180.031 68.1921 180.932 66.5026L179.168 65.5614ZM178.514 76.568H190.098V74.568H178.514V76.568ZM191.079 75.7641C191.257 74.874 191.37 74.0382 191.416 73.2587L189.42 73.1413C189.38 73.8125 189.281 74.5553 189.117 75.3719L191.079 75.7641ZM191.412 73.3104C191.5 72.513 191.546 71.7715 191.546 71.088H189.546C189.546 71.6845 189.506 72.351 189.424 73.0896L191.412 73.3104ZM191.546 71.088C191.546 68.2622 191 65.9752 189.714 64.4318L188.178 65.7122C189.025 66.7288 189.546 68.4525 189.546 71.088H191.546ZM189.714 64.4318C188.447 62.9111 186.751 62.152 184.722 62.152V64.152C186.192 64.152 187.312 64.6729 188.178 65.7122L189.714 64.4318ZM213.861 66.096L212.974 65.6334L212.971 65.6409L213.861 66.096ZM214.117 89.456L213.25 89.9541L213.255 89.9622L214.117 89.456ZM224.421 90.8L225.087 91.5459L225.089 91.5446L224.421 90.8ZM226.533 85.232L226.804 84.2693L225.616 83.9353L225.535 85.1666L226.533 85.232ZM230.629 86.384L231.597 86.633L231.841 85.6861L230.9 85.4213L230.629 86.384ZM226.405 92.784L226.93 93.635L226.935 93.632L226.405 92.784ZM208.229 90.224L207.459 90.862L207.464 90.8675L208.229 90.224ZM225.765 62.704L225.228 63.5477L225.239 63.5547L225.251 63.5615L225.765 62.704ZM229.797 67.312L228.869 67.6834L228.874 67.696L228.879 67.7084L229.797 67.312ZM230.437 73.392L230.581 74.3816L231.296 74.2776L231.422 73.5658L230.437 73.392ZM223.397 74.416L222.405 74.2862L222.234 75.5957L223.541 75.4056L223.397 74.416ZM218.469 62.152C217.279 62.152 216.191 62.4396 215.243 63.0453C214.299 63.6483 213.55 64.5303 212.974 65.6334L214.748 66.5586C215.196 65.6991 215.727 65.109 216.319 64.7307C216.907 64.3551 217.611 64.152 218.469 64.152V62.152ZM212.971 65.6409C211.873 67.788 211.389 71.2394 211.389 75.824H213.389C213.389 71.2779 213.886 68.244 214.751 66.5511L212.971 65.6409ZM211.389 75.824V79.664H213.389V75.824H211.389ZM211.389 79.664C211.389 84.2237 211.961 87.711 213.25 89.9541L214.984 88.9579C213.969 87.1904 213.389 84.1496 213.389 79.664H211.389ZM213.255 89.9622C214.615 92.2799 216.853 93.4 219.749 93.4V91.4C217.44 91.4 215.923 90.5575 214.979 88.9498L213.255 89.9622ZM219.749 93.4C221.863 93.4 223.674 92.8075 225.087 91.5459L223.755 90.0541C222.779 90.9258 221.475 91.4 219.749 91.4V93.4ZM225.089 91.5446C226.606 90.1838 227.353 88.0173 227.531 85.2974L225.535 85.1666C225.372 87.652 224.71 89.1976 223.753 90.0554L225.089 91.5446ZM226.262 86.1947L230.358 87.3467L230.9 85.4213L226.804 84.2693L226.262 86.1947ZM229.661 86.135C228.938 88.9447 227.65 90.8267 225.875 91.936L226.935 93.632C229.256 92.1813 230.784 89.7966 231.597 86.633L229.661 86.135ZM225.88 91.933C224.056 93.0583 221.876 93.64 219.301 93.64V95.64C222.187 95.64 224.743 94.9844 226.93 93.635L225.88 91.933ZM219.301 93.64C214.602 93.64 211.229 92.2389 208.994 89.5805L207.464 90.8675C210.178 94.0971 214.187 95.64 219.301 95.64V93.64ZM208.999 89.586C206.709 86.822 205.517 83.1209 205.517 78.384H203.517C203.517 83.4604 204.8 87.6527 207.459 90.862L208.999 89.586ZM205.517 78.384V77.104H203.517V78.384H205.517ZM205.517 77.104C205.517 72.3584 206.671 68.6773 208.877 65.9582L207.325 64.6978C204.753 67.8667 203.517 72.0362 203.517 77.104H205.517ZM208.877 65.9582C211.04 63.294 214.183 61.912 218.469 61.912V59.912C213.71 59.912 209.941 61.474 207.325 64.6978L208.877 65.9582ZM218.469 61.912C221.329 61.912 223.557 62.4845 225.228 63.5477L226.302 61.8603C224.218 60.5342 221.583 59.912 218.469 59.912V61.912ZM225.251 63.5615C227 64.6109 228.189 65.9834 228.869 67.6834L230.725 66.9406C229.869 64.8005 228.37 63.1011 226.279 61.8465L225.251 63.5615ZM228.879 67.7084C229.606 69.3918 229.805 71.2185 229.452 73.2182L231.422 73.5658C231.837 71.2135 231.61 68.9869 230.715 66.9156L228.879 67.7084ZM230.293 72.4024L223.253 73.4264L223.541 75.4056L230.581 74.3816L230.293 72.4024ZM224.389 74.5458C224.867 70.8917 224.698 67.9044 223.738 65.6973L221.904 66.4947C222.651 68.2129 222.866 70.7723 222.405 74.2862L224.389 74.5458ZM223.738 65.6973C223.253 64.5806 222.568 63.6782 221.653 63.0597C220.736 62.4392 219.658 62.152 218.469 62.152V64.152C219.328 64.152 219.999 64.3555 220.533 64.7163C221.069 65.0791 221.536 65.6487 221.904 66.4947L223.738 65.6973ZM272.033 92.208H273.033V91.3272L272.159 91.216L272.033 92.208ZM272.033 94V95H273.033V94H272.033ZM254.817 94H253.817V95H254.817V94ZM254.817 92.208L254.69 91.216L253.817 91.3272V92.208H254.817ZM258.337 91.76L258.212 90.7677L258.21 90.768L258.337 91.76ZM259.553 91.248L260.447 91.6952L260.46 91.6689L260.472 91.6419L259.553 91.248ZM258.401 66.096L257.553 66.626L257.562 66.6416L257.573 66.6568L258.401 66.096ZM252.001 64.624L252.342 65.5638L252.354 65.5597L252.365 65.5552L252.001 64.624ZM249.121 66.544L248.429 65.8214L248.421 65.829L248.413 65.8369L249.121 66.544ZM246.625 70.704L245.695 70.3363L245.625 70.5135V70.704H246.625ZM246.817 91.248L245.897 91.6419L245.909 91.6689L245.922 91.6952L246.817 91.248ZM248.033 91.76L248.159 90.768L248.157 90.7677L248.033 91.76ZM251.553 92.208H252.553V91.3272L251.679 91.216L251.553 92.208ZM251.553 94V95H252.553V94H251.553ZM234.337 94H233.337V95H234.337V94ZM234.337 92.208L234.21 91.216L233.337 91.3272V92.208H234.337ZM237.857 91.76L237.732 90.7677L237.73 90.768L237.857 91.76ZM239.073 91.248L239.967 91.6952L239.98 91.6689L239.992 91.6419L239.073 91.248ZM239.073 49.456L238.153 49.8499L238.165 49.8769L238.178 49.9032L239.073 49.456ZM237.857 48.88L237.73 49.872L237.732 49.8723L237.857 48.88ZM234.337 48.432H233.337V49.3128L234.21 49.424L234.337 48.432ZM234.337 46.64V45.64H233.337V46.64H234.337ZM246.625 46.64H247.625V45.64H246.625V46.64ZM246.625 66.544H245.625V70.0053L247.47 67.0773L246.625 66.544ZM251.233 62.256L250.802 61.3535L250.794 61.3574L251.233 62.256ZM264.353 63.92L265.09 63.245L265.09 63.245L264.353 63.92ZM267.297 91.248L266.377 91.6419L266.389 91.6689L266.402 91.6952L267.297 91.248ZM268.513 91.76L268.639 90.768L268.637 90.7677L268.513 91.76ZM271.033 92.208V94H273.033V92.208H271.033ZM272.033 93H254.817V95H272.033V93ZM255.817 94V92.208H253.817V94H255.817ZM254.943 93.2L258.463 92.752L258.21 90.768L254.69 91.216L254.943 93.2ZM258.461 92.7523C258.848 92.7039 259.22 92.6246 259.541 92.4896C259.85 92.3593 260.232 92.1254 260.447 91.6952L258.658 90.8008C258.745 90.6266 258.86 90.6061 258.764 90.6464C258.68 90.6821 258.508 90.7308 258.212 90.7677L258.461 92.7523ZM260.472 91.6419C260.611 91.3172 260.663 90.8618 260.694 90.441C260.728 89.9689 260.745 89.3602 260.745 88.624H258.745C258.745 89.3385 258.729 89.8925 258.699 90.295C258.666 90.7489 258.622 90.8801 258.633 90.8541L260.472 91.6419ZM260.745 88.624V72.496H258.745V88.624H260.745ZM260.745 72.496C260.745 69.4971 260.297 67.1125 259.228 65.5352L257.573 66.6568C258.296 67.7248 258.745 69.6069 258.745 72.496H260.745ZM259.248 65.566C258.2 63.8877 256.587 63.048 254.561 63.048V65.048C255.947 65.048 256.895 65.5736 257.553 66.626L259.248 65.566ZM254.561 63.048C253.668 63.048 252.686 63.2821 251.636 63.6928L252.365 65.5552C253.278 65.1979 254.003 65.048 254.561 65.048V63.048ZM251.659 63.6842C250.552 64.0867 249.477 64.8193 248.429 65.8214L249.812 67.2666C250.727 66.3913 251.572 65.844 252.342 65.5638L251.659 63.6842ZM248.413 65.8369C247.343 66.9075 246.448 68.4308 245.695 70.3363L247.554 71.0717C248.252 69.3079 249.021 68.0579 249.828 67.2511L248.413 65.8369ZM245.625 70.704V88.624H247.625V70.704H245.625ZM245.625 88.624C245.625 89.3602 245.641 89.9689 245.675 90.441C245.706 90.8618 245.758 91.3172 245.897 91.6419L247.736 90.8541C247.747 90.8801 247.703 90.7489 247.67 90.295C247.64 89.8925 247.625 89.3385 247.625 88.624H245.625ZM245.922 91.6952C246.137 92.1254 246.519 92.3593 246.828 92.4896C247.149 92.6246 247.521 92.7039 247.908 92.7523L248.157 90.7677C247.861 90.7308 247.689 90.6821 247.605 90.6464C247.509 90.6061 247.624 90.6266 247.711 90.8008L245.922 91.6952ZM247.906 92.752L251.426 93.2L251.679 91.216L248.159 90.768L247.906 92.752ZM250.553 92.208V94H252.553V92.208H250.553ZM251.553 93H234.337V95H251.553V93ZM235.337 94V92.208H233.337V94H235.337ZM234.463 93.2L237.983 92.752L237.73 90.768L234.21 91.216L234.463 93.2ZM237.981 92.7523C238.368 92.7039 238.74 92.6246 239.061 92.4896C239.37 92.3593 239.752 92.1254 239.967 91.6952L238.178 90.8008C238.265 90.6266 238.38 90.6061 238.284 90.6464C238.2 90.6821 238.028 90.7308 237.732 90.7677L237.981 92.7523ZM239.992 91.6419C240.131 91.3172 240.183 90.8618 240.214 90.441C240.248 89.9689 240.265 89.3602 240.265 88.624H238.265C238.265 89.3385 238.249 89.8925 238.219 90.295C238.186 90.7489 238.142 90.8801 238.153 90.8541L239.992 91.6419ZM240.265 88.624V52.016H238.265V88.624H240.265ZM240.265 52.016C240.265 51.2803 240.248 50.676 240.214 50.2132C240.196 49.9824 240.173 49.7716 240.142 49.5895C240.114 49.4286 240.067 49.2084 239.967 49.0088L238.178 49.9032C238.142 49.8316 238.151 49.8141 238.171 49.9305C238.188 50.0257 238.205 50.1669 238.219 50.3628C238.249 50.7534 238.265 51.3011 238.265 52.016H240.265ZM239.992 49.0621C239.8 48.6159 239.44 48.3449 239.101 48.1843C238.765 48.0253 238.377 47.9373 237.981 47.8877L237.732 49.8723C238.018 49.908 238.175 49.9587 238.244 49.9917C238.311 50.0231 238.217 49.9975 238.153 49.8499L239.992 49.0621ZM237.983 47.888L234.463 47.44L234.21 49.424L237.73 49.872L237.983 47.888ZM235.337 48.432V46.64H233.337V48.432H235.337ZM234.337 47.64H246.625V45.64H234.337V47.64ZM245.625 46.64V66.544H247.625V46.64H245.625ZM247.47 67.0773C248.622 65.2499 250.026 63.9583 251.671 63.1546L250.794 61.3574C248.77 62.3457 247.101 63.9128 245.779 66.0107L247.47 67.0773ZM251.663 63.1585C253.421 62.3197 255.152 61.912 256.865 61.912V59.912C254.823 59.912 252.799 60.4003 250.802 61.3535L251.663 63.1585ZM256.865 61.912C259.791 61.912 262.001 62.8308 263.615 64.595L265.09 63.245C263.035 60.9985 260.253 59.912 256.865 59.912V61.912ZM263.615 64.595C265.229 66.3596 266.104 68.9238 266.104 72.432H268.104C268.104 68.6016 267.145 65.4911 265.09 63.245L263.615 64.595ZM266.104 72.432V88.624H268.104V72.432H266.104ZM266.104 88.624C266.104 89.3602 266.121 89.9689 266.155 90.441C266.186 90.8618 266.238 91.3172 266.377 91.6419L268.216 90.8541C268.227 90.8801 268.183 90.7489 268.15 90.295C268.12 89.8925 268.104 89.3385 268.104 88.624H266.104ZM266.402 91.6952C266.617 92.1254 266.999 92.3593 267.308 92.4896C267.629 92.6246 268.001 92.7039 268.388 92.7523L268.637 90.7677C268.341 90.7308 268.169 90.6821 268.085 90.6464C267.989 90.6061 268.104 90.6266 268.191 90.8008L266.402 91.6952ZM268.386 92.752L271.906 93.2L272.159 91.216L268.639 90.768L268.386 92.752Z" fill="#FF9D9D" mask="url(#path-8-outside-2_296_40)"/>
<path d="M126.29 44.8L127.25 68.896H125.426C122.61 60.384 120.114 54.592 117.938 51.52C115.762 48.384 112.626 46.816 108.53 46.816H107.378V109.984H115.538V112H80.4984V109.984H88.6584V46.816H87.4104C83.3144 46.816 80.1464 48.448 77.9064 51.712C75.6664 54.912 73.2024 60.64 70.5144 68.896H68.6904L69.6504 44.8H126.29Z" fill="#4353FF"/>
<rect x="57" y="132" width="83" height="38" fill="white"/>
<defs>
<linearGradient id="paint0_linear_296_40" x1="31.75" y1="53" x2="157.75" y2="135.75" gradientUnits="userSpaceOnUse">
<stop stop-color="#FF9D9D"/>
<stop offset="1" stop-color="white"/>
</linearGradient>
</defs>
</svg>
